<?xml version="1.0" encoding="UTF-8"?>
<svg version="1.1" viewBox="0 0 2048 475" width="1222" height="284" xmlns="http://www.w3.org/2000/svg">
<path transform="translate(0)" d="m0 0h2048v475h-2048z" fill="#33343E"/>
<path transform="translate(150,52)" d="m0 0h78l23 1 20 3 18 5 14 6 20 12 11 8 8 7 11 12 7 11 7 16 5 20 2 15v24l-3 18-4 13-6 14-10 16-8 10-4 4-5 3-15 11-17 9-22 8-19 4-15 2h-90l-4-2-2-6-1-17-1-59v-118l1-48z" fill="#FDFDFC"/>
<path transform="translate(1166,52)" d="m0 0h58l44 1 19 2 20 6 17 9 11 8 7 7 9 13 7 15 3 12 1 10v11l-2 14-4 13-9 17-8 10-9 7-20 12-21 8-15 3h-56l-2 70-2 5-3 1h-37l-9-2-1-5v-56l1-190z" fill="#FDFDFC"/>
<path transform="translate(1449,50)" d="m0 0h24l8 2 4 5 12 24 12 27 13 29 19 48 8 16 9 19 7 19 13 29 13 31v5l-5 2h-47l-3-4-11-28-8-19-2-7-110 1-2 9-7 18-8 16-6 11-3 2h-47l-1-1 1-10 7-17 16-35 14-32 10-26 10-24 12-30 8-18 14-31 9-21 4-6 5-3z" fill="#FDFDFC"/>
<path transform="translate(703,50)" d="m0 0h19l5 4 10 19 12 29 13 27 13 31 22 50 13 27 17 39 11 23-1 5-2 2-5 1h-34l-13-1-5-8-16-38-5-12h-104l-4 10-11 28-7 16-2 2-4 1h-22l-19-1-3-2 1-9 7-20 14-35 11-26 13-32 15-38 14-31 11-27 12-25 3-6 6-2z" fill="#FDFDFC"/>
<path transform="translate(1828,51)" d="m0 0h166l3 1 1 2 1 40-1 6h-116l-4-1 1 3v50l104 1 2 1 2 26v20l-1 1h-53l-55-1 1 31v23h118l1 1 1 12v36l-4 2-32 1h-102l-32-1-2-2-1-6-1-87v-43l1-81 1-34z" fill="#FDFDFC"/>
<path transform="translate(558,51)" d="m0 0h12l2 1 1 14v30l-2 4-2 1h-107l-8-1v53h37l54 1 15 1v46l-32 1h-75v54l38-1h78l1 6v19l-2 21-1 3-2 1-25 1h-53l-59-1-26-1-2-6-1-153v-70l1-22 1-1z" fill="#FDFDFC"/>
<path transform="translate(1035,50)" d="m0 0h22l19 3 18 6 16 8 17 11 4 3-1 5-12 17-9 14-3 5-5-5-11-7-14-6-14-4-8-1h-17l-10 2-10 7-4 6-1 4v10l3 8 5 5 10 5 28 8 29 7 10 4 16 10 12 11 9 14 5 15 1 6v16l-4 17-8 15-10 13-7 7-16 9-15 6-15 3-8 1h-14l-25-4-21-7-21-11-14-10-13-11-3-6 10-9 17-17 3-5 5 1 9 10 2 1v2l20 10 14 5 12 2 21 1 11-2 8-5 5-6 3-7v-13l-5-10-11-7-24-8-30-9-17-7-18-11-10-10-8-16-4-15v-13l4-20 5-13 7-11 8-8 10-7 16-7 18-4z" fill="#FDFDFC"/>
<path transform="translate(1702,49)" d="m0 0h18l16 2 15 4 16 8 8 7 9 6 16 15 3 3v2l-11 7-8 8-9 11-3 4-3-1-6-7-10-6-14-6-14-4-17-1-16 3-13 5-13 8-10 9-6 7-8 14-4 14-1 6v23l4 16 8 16 8 11 7 6 11 7 10 5 19 5h18l15-4 16-8 13-9 4-5 5 1 23 23 7 6v5l-10 9-10 8-14 10-17 8-16 5-21 3-17-1-21-4-20-8-20-10-17-12-13-13-8-12-10-18-6-16-3-14-1-8v-29l5-23 8-21 9-15 9-11 9-10 14-11 15-9 15-6 28-7z" fill="#FDFDFC"/>
<path transform="translate(201,101)" d="m0 0h47l18 3 15 5 10 6 9 8 11 14 7 17 2 8 1 9v13l-3 16-4 12-7 12-10 11-10 7-12 6-13 4-11 2-14 1h-36z" fill="#33343E"/>
<path transform="translate(64,52)" d="m0 0h45l1 1 2 95v36l-1 114-2 4-6 2-11 1h-23l-5-2-2-6-1-10-1-126-1-35v-27l1-45z" fill="#FDFDFC"/>
<path transform="translate(1218,101)" d="m0 0h55l14 3 10 6 7 8 5 12 1 5v8l-3 13-6 10-7 7-12 6-12 2-12 1h-40z" fill="#353640"/>
<path transform="translate(840,165)" d="m0 0h26l73 1 1 4v43l-2 2-33-1h-72l-2-1v-45l1-2z" fill="#FDFDFC"/>
<path transform="translate(1458,113)" d="m0 0 3 3 7 19 11 25 11 29 4 13v2h-69l-1-2 4-8 13-35 10-25 6-20z" fill="#34353F"/>
<path transform="translate(704,116)" d="m0 0 3 3 6 19 12 27 15 35 1 5-12-1h-60l2-5 15-36 8-22 7-18z" fill="#32333D"/>
<path transform="translate(660,390)" d="m0 0h12l14 3 7 4 3 5 2 10v13l-4 8-7 7-8 3h-10l-7-6-1-4-1-26z" fill="#60616A"/>
<path transform="translate(1118,391)" d="m0 0h29l6 3v8l-8 3-7 2-3 7 11-3h6v26l-8 4-8 2-9-1-6-4-4-11-3-11v-20z" fill="#60616A"/>
<path transform="translate(1009,391)" d="m0 0h20l6 3 4 7-1 4-2 3-7 3 7 1 5 5v9l-4 7-6 5-6 3h-7l-10-4-7-8v-25l3-9z" fill="#54535D"/>
<path transform="translate(1434,391)" d="m0 0h13l15 2 5 3 2 4v25l-3 2-9 1 3 2 6 2v5l-3 2-13 1h-15l-2-6v-31z" fill="#60616A"/>
<path transform="translate(1366,388)" d="m0 0h11l6 2 3 3 1 3v7l-5-1h-15l-7 6-3 5v11l4 6 3 2h8l6-7-9-3-1-1v-5l2-2h18l2 2v13l-3 8-9 6-4 1h-14l-9-6-8-9-3-7v-9l6-10 6-7 10-7z" fill="#787B85"/>
<path transform="translate(838,391)" d="m0 0h19l5 2 6 6-1 36-1 2-3 1h-14l-10-1-4-1-10-2-1-8 5-8 3-8 2-2h6l3 2v2l16 8 3 1v-6l-11-3-12-6-4-4 1-9z" fill="#54535D"/>
<path transform="translate(581,390)" d="m0 0h21l2 1 2 13v19l-2 9-4 6-6 3-8-1-6-3 1-13 1-2-1-8z" fill="#54535D"/>
<path transform="translate(678,57)" d="m0 0 1 4-13 27-12 30-12 26-14 36-16 39-15 36-13 34h-2l-2 4-1-6 7-18 1-2-2-1 2-2 1-3h2l1-7 2-4 2-5 5-12 4-10 10-26 10-24 2-1v-2l2-1 1-7 3-6 2-7 3-5 3-9 7-15 2-4h2l-1-3 3-6 2-7 5-10 2-6 5-10h2l1-5 5-10z" fill="#2B2C34"/>
<path transform="translate(1210,392)" d="m0 0h29v10l-7 1h-14v10h21v7l-15 2h-7v10h22v10h-24l-8-1v-48z" fill="#787B85"/>
<path transform="translate(924,391)" d="m0 0h13l6 3 2 6 2 12 1 4v9l-6 8-4 2v2l-4 2h-6l-4-3-3-9-1-11v-22l1-2z" fill="#60616A"/>
<path transform="translate(1022,103)" d="m0 0 2 1v1l6-2h18v1l-16 2-12 6-3 5-1 4v7l3 7 5 4 15 5 51 13 17 7 5 3v2h3v2h2l7 8 6 7 4 7 7 14 3 12v4h2v6h-2l1 5-3 8h-2l-1-21-4-16-6-12-8-10-9-8-17-10-11-4-26-6-28-8-12-6-6-9-1-4v-10l3-7 4-5z" fill="#1F1F26"/>
<path transform="translate(741,393)" d="m0 0h19l9 2-2 6-5 5-3 7v16l3 3v7l-2 2-11-1-7-3-2-4v-39z" fill="#54535D"/>
<path transform="translate(1825,53)" d="m0 0h1v248l-3-2-1-6-1-26v-65l1-121z" fill="#2C2D34"/>
<path transform="translate(1430,57)" d="m0 0 2 1-1 6-12 28-15 33-14 35-8 19-5 5-6 12-10 25v7l-3 5-1-3-1-9 2-5 4-16 10-21 2-3h2l1-3h2l1-4 4-11 5-13 5-10 4-10 5-12 6-11 5-12 5-10 8-18 2-2z" fill="#292932"/>
<path transform="translate(202,102)" d="m0 0h44l-1 2-33 1-1 2-2 1-3 1 1 6v6l-1 7-1 8 2 1h-2v3l2 1-2 3h2v4 48h1v7 1 10l-1 4v8l-1 1v9h-1v13l3 3 12-1h27l3 2-13 2h-36z" fill="#31323A"/>
<path transform="translate(303,65)" d="m0 0 8 1 2 1v2h4l3 3 10 6 7 5v2h2v2l4 2 8 9 8 10 8 13 11 33 1 15v20l-2 18-5 15-6 14-2 3h-3l1-6 7-18 3-15 1-8v-24l-3-20-5-18-8-17-8-10-13-14-5-5-11-8-15-8v-2z" fill="#1E1E24"/>
<path transform="translate(398,56)" d="m0 0h1l1 89v62l-1 90-3-4-1-23v-181l1-19 1-11z" fill="#19191F"/>
<path transform="translate(761,121)" d="m0 0 3 1 3 9 8 15 9 20 8 16 3 11 5 10 3 9 1 5 4 9v3h2v2l3 1 1 3 2 8h2l3 9v2l3 3 6 15 2 10-1 2-3-3-16-37-19-40-15-35-13-30-5-12z" fill="#292A32"/>
<path transform="translate(666,391)" d="m0 0h13l10 3 5 4 3 8 1 6v13l-4 8-7 7-8 3h-7l-7-6v-2h2v-2l13-3 6-4 1-3v-11l-4-6-5-3-10-1-2-2-1-5z" fill="#797B85"/>
<path transform="translate(1283,390)" d="m0 0h7l7 3 1 9 1 24v16l-1 1h-11l-5-2v-38z" fill="#787B85"/>
<path transform="translate(147,55)" d="m0 0h1v214h-1l-2-12-1-52v-124l2-24z" fill="#14141A"/>
<path transform="translate(0,33)" d="m0 0h33l10 1 1 2-2 9-1 2-8 2-18 1h-15z" fill="#60616A"/>
<path transform="translate(956,119)" d="m0 0h2l1 13 6 20 7 13 9 9 15 9 14 7 58 18 10 6-2 1-11-5-20-6-26-8-14-5-12-6-10-7-10-9 2 5h2v2l4 2 13 9 19 9 7 2v1h-12l-12-3-10-8-8-7-6-7-7-10-6-14-3-13-1-3v-12z" fill="#22232B"/>
<path transform="translate(709,140)" d="m0 0 3 4 5 10 4 2 16 37 4 9v3l-12-1-25-1-10-1v-1h18v-2h6v-2l-7 1 3-2 6-3 3-4-1-9-5-14-6-13 1-3-3-7z" fill="#1E1E26"/>
<path transform="translate(980,220)" d="m0 0 6 2 6 4 3 4 4 8 6 5 13 6 17 5 20 3 10 1v1h-25l-19-5-21-9-6-4-5-2-9-10h-4l-4 6-21 21-5 1 2-4 8-9 12-16 8-7z" fill="#27272F"/>
<path transform="translate(1364,403)" d="m0 0h20l3 1 2 10-19 1-1 1v5l6 2 4 2-7 8h-8l-6-5-2-4v-11l6-8z" fill="#1F1F27"/>
<path transform="translate(1163,53)" d="m0 0h1l1 11v52l-1 111-4-2v-16l1-35-1-13v-88l1-1v-16z" fill="#131319"/>
<path transform="translate(847,161)" d="m0 0h76l13 1 7 3 1 2 1 14-1 29-2 5h-1l-1-32-1-17h-73l-26-1-3-2 1-1z" fill="#31323A"/>
<path transform="translate(740,392)" d="m0 0h23l11 2v2h2l-1 5-3 9-2 19-3 9-3 3-4-1 1-1 1-7-3-1-1-3v-15l5-10 4-3 2-5-9-1h-19v31l-1 6h-1l-1-37z" fill="#44434C"/>
<path transform="translate(832,393)" d="m0 0 5 1-1 8 8 6 10 4 8 3v6l-6-1-10-6-6-5h-6l-3 5-3 7-3 5v8l10 1v1l-10 1-5-5-4-7v-7l5-12 5-5h2l1-4z" fill="#44434C"/>
<path transform="translate(1333,73)" d="m0 0 5 2v3l4 1 7 6v2h2l8 15 5 11 3 16v24l-1 5-1 3h-2l1 4h-2v4h-3v-9l2-14v-11l-2-15-4-12-8-15-9-11-6-7z" fill="#303139"/>
<path transform="translate(58,130)" d="m0 0h1l2 31v135l-3-4-1-11v-139z" fill="#2C2C34"/>
<path transform="translate(1469,148)" d="m0 0 5 1 9 21 10 28 1 6h-16l-48-2-2-2 18-2h11l9 1 17-1 3-1-1-6-1-4-4-10-3-9v-3l-2-1v-4l-2-1-3-6 1-2-2-1z" fill="#25262D"/>
<path transform="translate(653,247)" d="m0 0h104l1 4-3 1h-97l-3 2-1 3h-3v-8z" fill="#41424A"/>
<path transform="translate(1219,127)" d="m0 0 3 3v38l1 8 1 1h32l23-2 9-3 4-3h2l2-4 6-9 3-7 2-8h1v12l-6 12-8 8-12 6-12 2h-51z" fill="#1F2026"/>
<path transform="translate(573,51)" d="m0 0 2 2 3 9v9h1l1 15-1 4h-2l1 6-2 1-1 3-5 4-13 2h-35l-27-1v-2h-16v-1h90v-2l2-1 1-3h2z" fill="#18181F"/>
<path transform="translate(1037,98)" d="m0 0h17l16 3 16 6 11 6 5 4 3 4-1 3-10-5-15-8-7-3-1 2-8-4-5-1h-8v-2l-20 1-9 3 4-6 5-2z" fill="#1C1C23"/>
<path transform="translate(253,104)" d="m0 0 10 1 18 6 9 5 14 12 8 11 6 15 2 8 1 9v13l-3 16-1 4-3-1 1-9 1-6v-18l-3-15-5-12-7-12-10-10-12-7-21-7-5-2z" fill="#292930"/>
<path transform="translate(1450,392)" d="m0 0h8l8 3 3 5v25l-3 2-6-1 1-7-6-2-1-11-4-7z" fill="#54535D"/>
<path transform="translate(672,403)" d="m0 0h9l6 7 1 2v11l-3 5-8 4-6-2-1-3v-13z" fill="#31323C"/>
<path transform="translate(1009,396)" d="m0 0 3 2v4l2 1 2 7-2 3h-5l-1 5v2l6 1v2h3v4h-2l2 9-1 3-6-1-8-7-1-2v-14l2-13h2l2-5z" fill="#60616A"/>
<path transform="translate(303,65)" d="m0 0 8 1 2 1v2h4l3 3 10 6 7 5v2h2v2l4 2 8 9 8 10 8 13 11 33-2 2-3-9v-3h-2l-1 4-5-18-8-17-8-10-13-14-5-5-11-8-15-8v-2z" fill="#27272F"/>
<path transform="translate(861,213)" d="m0 0h44l36 4-1 2h-13l-16-1h-26v1h-34l-1-1h-14l-4-2v-2z" fill="#24252B"/>
<path transform="translate(793,193)" d="m0 0h2l5 10 3 9 1 5 4 9v3h2v2l3 1 1 3 2 8h2l3 9v2l3 3 6 15 2 10-1 2-3-3-16-37-19-40-2-5v-5z" fill="#2A2B33"/>
<path transform="translate(696,137)" d="m0 0 1 4-5 11 1 2 1 3-3 6-2 6h-2l1 3-2 5h-2l1 3-4 8-2 5v5l33 1v2l-8 1v1l-15 1h-20l2-5 15-36 8-22z" fill="#25252E"/>
<path transform="translate(1094,159)" d="m0 0 9 3 9 5v2h3v2h2l7 8 6 7 4 7 7 14 3 12v4h2v6h-2l1 5-3 8h-2l-1-21-4-16-6-12-8-10-9-8-2-2v-2l-11-7-5-3z" fill="#24242C"/>
<path transform="translate(922,417)" d="m0 0 6 1 9 3 7 1 1 5-1 4-4 4h-2v2l-4 2h-6l-4-3-3-9v-9z" fill="#787B85"/>
<path transform="translate(1823,196)" d="m0 0h1l1 17 1 88-3-2-1-6-1-26v-65z" fill="#111117"/>
<path transform="translate(1381,166)" d="m0 0h2v2l3-1-1 5-3 7-5 5-6 12-10 25v7l-3 5-1-3-1-9 2-5 4-16 10-21 2-3h2l1-3h2l1-4z" fill="#22222A"/>
<path transform="translate(1407,248)" d="m0 0h108l-1 2h-55l33 1v1l-11 1h-29v-1l-10-1-1 2h-29l-5-2-1 3h-1v-5z" fill="#373840"/>
<path transform="translate(733,59)" d="m0 0h2l8 14 8 21 10 22v5l-3 1-11-22-12-29-3-6z" fill="#2D2D36"/>
<path transform="translate(1164,116)" d="m0 0h1v127l-1 60-1-3h-2v-65l-1-8 2-1 2 1z" fill="#43444D"/>
<path transform="translate(1218,102)" d="m0 0 56 1 16 4 2 2-1 1-7-1-5-1h-56l-2 3-1 5h-1z" fill="#121318"/>
<path transform="translate(1433,416)" d="m0 0 9 1 4 5 1 6 3 10-1 1-14 1-2-6z" fill="#797C86"/>
<path transform="translate(972,168)" d="m0 0 7 6 11 8 10 6 16 6 25 8 21 6 12 5 6 4 2 3-2 2-7-6-13-5-26-7-14-4v-2l-7-1-21-10-12-9-3-2v-2h-2l-3-4z" fill="#16161C"/>
<path transform="translate(1458,113)" d="m0 0 3 3 7 19 2 5-1 6-7-4 2-2-3-5-5 1-2 6-2 1-1 4-2 5-2-1 1-9 5-15 4-13z" fill="#25252C"/>
<path transform="translate(704,116)" d="m0 0 3 3 6 19 7 16-1 2-5-5-4-9v-2l-4-2-4-1-4 9-4 8-3 1 1-5 4-9 2-10z" fill="#202027"/>
<path transform="translate(1217,230)" d="m0 0h1v15h2l1-4v10l-1 3 1 5h1v36l-2 7-4 2v-34z" fill="#2B2B33"/>
<path transform="translate(1892,101)" d="m0 0h105l-1 3h-69l-35-1z" fill="#121218"/>
<path transform="translate(454,100)" d="m0 0 115 1v1l-74 1v1l-36 1v2l-3 2-1 44h-1z" fill="#3F4049"/>
<path transform="translate(1285,227)" d="m0 0h8v2l-8 4-18 2h-36v-2h-8l1-2 47-1z" fill="#17181D"/>
<path transform="translate(501,202)" d="m0 0h59l-2 2-43 1-24 1h-33l-5 4v-7z" fill="#101016"/>
<path transform="translate(945,259)" d="m0 0 9 9 9 8 15 10 19 10 21 7 25 4h14l18-3h5l-3 2-11 2-8 1h-21l-25-5-18-6-15-8-14-10-14-11-6-7z" fill="#73767F"/>
<path transform="translate(1600,247)" d="m0 0 5 5 7 10 11 11 13 9 23 12 20 8 21 4 11 1v1h-16l-15-3-15-5-25-12-12-8-11-9-10-11-7-11z" fill="#777A84"/>
<path transform="translate(157,305)" d="m0 0h89v1h-6v2h-71l-10-1z" fill="#131319"/>
<path transform="translate(1879,140)" d="m0 0 1 2h2l2 6 95 3v1l-100 1z" fill="#191921"/>
<path transform="translate(1146,411)" d="m0 0h6v26l-5 3h-3l-1-15 1-7-2-3-5-1v-1z" fill="#54535D"/>
<path transform="translate(570,254)" d="m0 0 4 4 1 6v16l-1 17-3 6-3 1v-11l1-13z" fill="#1C1C23"/>
<path transform="translate(599,238)" d="m0 0 1 3-1 6-2 2-1 9-12 31h-2l-2 4-1-6 7-18 1-2-2-1 2-2 1-3h2l1-7 2-4 2-5 3-6z" fill="#25262D"/>
<path transform="translate(983,229)" d="m0 0 4 2v2l5 2 8 6 18 8 17 5 20 3 10 1v1h-25l-19-5-21-9-6-4-5-2-6-7z" fill="#19191F"/>
<path transform="translate(1380,179)" d="m0 0 1 3-14 35-13 29-2 2 1-5 2-9 4-4 1-6 1-5 11-28 6-10z" fill="#2E2F36"/>
<path transform="translate(973,167)" d="m0 0 7 6 14 9 16 8 58 18 10 6-2 1-11-5-20-6-26-8-14-5-12-6-10-7-10-9z" fill="#767983"/>
<path transform="translate(1770,224)" d="m0 0 7 4 9 8 7 8 8 9-1 2-4-2-21-21-5-2-2 4-9 7h-3l1-3 5-4 6-9z" fill="#27272F"/>
<path transform="translate(110,52)" d="m0 0 3 1 1 5v44l-1 14h-1l-1-7-1-1z" fill="#25252C"/>
<path transform="translate(1356,225)" d="m0 0 2 1-1 7-1 1-2 9-4 12-9 20-2-3-1-5 5-14 4-5 2-6 3-5 2-9z" fill="#2B2C34"/>
<path transform="translate(314,146)" d="m0 0 2 3 4 13 1 9v13l-3 16-1 4-3-1 1-9 1-6v-18l-3-15-2-5 1-3 1 2z" fill="#2F3037"/>
<path transform="translate(1557,218)" d="m0 0h2l5 14 8 18 11 25 9 23v7l-4 2h-49v-1l47-1 4-1-1-7-17-40-10-23-5-14z" fill="#767983"/>
<path transform="translate(944,258)" d="m0 0 2 4 7 8 13 10 15 10 16 8 15 5 15 4v1l-9-1-10-2-10-4-8-3-5-2v-2l-5-1-6-3-5-3-4-2-5-5-12-11-4-5-1-5z" fill="#1A1A21"/>
<path transform="translate(1623,78)" d="m0 0h2v3l-8 7-11 13-11 18-5 12-3-3 1-4 5-11h2l1-5 3-5 2-2 3-5 14-14z" fill="#31323B"/>
<path transform="translate(573,51)" d="m0 0 2 2 3 9v9h1l1 15-1 4h-2l1 6-2 1-1 3-5 4-2-1 1-3 2-1 1-3h2z" fill="#202028"/>
<path transform="translate(1345,197)" d="m0 0v3l-5 6-10 8-14 8-14 5h-5l1-3 13-5 16-9 13-10z" fill="#101015"/>
<path transform="translate(18,33)" d="m0 0h15l10 1 1 2-2 9-1 2-8 2h-13v-1l8-2 2-3v-8l-12-1z" fill="#54535D"/>
<path transform="translate(678,57)" d="m0 0 1 4-13 27-6 15h-3l-2-3 5-10 2-6 5-10h2l1-5 5-10z" fill="#2B2B33"/>
<path transform="translate(1777,65)" d="m0 0 9 3 9 5-2 2-5-2 5 4 5 5v2l3 1 6 9-1 2h-3l-7-8-13-12v-3l-7-6z" fill="#22222A"/>
<path transform="translate(1594,241)" d="m0 0 3 1 3 3 3 7 7 10 9 10 12 9 13 8 4 2v2l-4-1-15-9-7-4-7-6v-2l-4-2-6-7-7-11v-2h-2l-2-5z" fill="#1A1A21"/>
<path transform="translate(1132,81)" d="m0 0 3 1-1 6-12 17-11 14-4 4 1-6 9-14 12-17 3-2z" fill="#26262D"/>
<path transform="translate(1578,162)" d="m0 0h2l1 28 2 10 2 16v3l-1 4-4-12-2-9-1-7v-27l1-2z" fill="#2E2E37"/>
<path transform="translate(1037,98)" d="m0 0h17l16 3 16 6 11 6 5 4 1 3-5-2-12-7-15-6-6-2-10-2h-24l-7 2 3-3z" fill="#757882"/>
<path transform="translate(839,398)" d="m0 0h5l6 4 4 2v2l5 1 1 4-7 2-14-7-4-4v-3z" fill="#5F6069"/>
<path transform="translate(456,108)" d="m0 0h1l2 41 25 1 5 1v1l-34 1v-44z" fill="#1D1D25"/>
<path transform="translate(337,269)" d="m0 0h2l-2 4-10 8-6 4h-2l-1 2-6 2-1 2-10 4-10 3-13 4-4-1 2-2 16-4 16-7 12-6 16-12z" fill="#1E1E25"/>
<path transform="translate(732,189)" d="m0 0 4 2 5 11v3l-12-1-25-1-10-1v-1l40-2z" fill="#1F1F26"/>
<path transform="translate(1218,413)" d="m0 0h21v7l-15 2h-6z" fill="#5F6069"/>
<path transform="translate(1878,99)" d="m0 0 62 1v1h-48v2l3 1-11 1-2 3-1 21-2 1z" fill="#27272F"/>
<path transform="translate(1358,164)" d="m0 0h1v5h2l-2 9-7 12-5 7-5 3-4 3-2-1 8-9 9-16z" fill="#25252D"/>
<path transform="translate(982,67)" d="m0 0h2l-2 4-7 7-8 14-5 17-1 5h-1l-2-11 2-4 2-9h2l2-6 6-8 6-6h2v-2z" fill="#32323B"/>
<path transform="translate(1465,394)" d="m0 0 4 2 3 6 1 16-2 9-4 9-2-4-6-2-3-3 10-1 2-1v-25z" fill="#44434C"/>
<path transform="translate(1458,249)" d="m0 0h56l2 1 1 11-2-2-2-6-54-2z" fill="#111117"/>
<path transform="translate(561,155)" d="m0 0 3 3 1 15v22l-1 4-3 1z" fill="#1B1B23"/>
<path transform="translate(402,305)" d="m0 0h59l22 1-1 2h-72v-2h-8z" fill="#1B1B23"/>
<path transform="translate(725,179)" d="m0 0 5 5h3l2 6-3-1 2 5v5l-6 1h-16v-1l7-2 5-2 2-5v-6z" fill="#212129"/>
<path transform="translate(1392,139)" d="m0 0h2l1 2-1 9-7 17-4 1-1-5 5-13z" fill="#27272F"/>
<path transform="translate(828,164)" d="m0 0 3 1-1 48h-1l-1-11-1 5h-1l-1-17v-10l2-4v-10z" fill="#1D1D25"/>
<path transform="translate(1538,307)" d="m0 0h52l-1 2-11 1h-38l-2-1z" fill="#1E1F26"/>
<path transform="translate(940,165)" d="m0 0 4 2 1 14-1 29-2 5h-1z" fill="#17171E"/>
<path transform="translate(59,235)" d="m0 0h1l1 42v19l-3-4-1-11v-25l1-3z" fill="#0E0E13"/>
<path transform="translate(832,214)" d="m0 0h22v1l38 1v1l-7 1v1h-34l-1-1h-14l-4-2z" fill="#1D1D25"/>
<path transform="translate(1450,426)" d="m0 0h10l-3 2 3 2 6 2v5l-3 2h-8l2-1v-2l-4-1-3-4-1-4z" fill="#54535D"/>
<path transform="translate(1163,53)" d="m0 0 1 4-1 18-1 99h-1l-1-13v-88l1-1v-16z" fill="#1D1D25"/>
<path transform="translate(336,267)" d="m0 0 3 1-9 8-15 10-18 8-16 5h-5l4-2 24-9 15-8 16-12z" fill="#787A84"/>
<path transform="translate(43,34)" d="m0 0 8 1 2 1v7l-4 2v2l-7 2h-9v-1l8-1z" fill="#44434C"/>
<path transform="translate(542,251)" d="m0 0h20l3 1v2h-73v-1z" fill="#17171E"/>
<path transform="translate(560,155)" d="m0 0h1l1 44 1 2-4 4-44 1v-2l43-1-30-1v-1h32z" fill="#50515B"/>
<path transform="translate(1219,127)" d="m0 0 3 3v37l-1 1-1 11 29 1v1h-30z" fill="#15151C"/>
<path transform="translate(972,168)" d="m0 0 7 6 11 8 10 6 16 6 9 3-1 2-8-1-16-7-11-6-12-9v-2h-2l-3-4z" fill="#131319"/>
<path transform="translate(1220,168)" d="m0 0h2l1 8 1 1 32 1 14 1v2h-21l-27-1-2-1z" fill="#1E1E26"/>
<path transform="translate(1563,228)" d="m0 0h3l-1 4h2l3 6 2 6v2l2 2 5 13 4 9 3 10h-2l-13-30-8-18z" fill="#202028"/>
<path transform="translate(1031,100)" d="m0 0h24l8 3v1l-5 1h-8v-2l-20 1-9 3 5-5z" fill="#131319"/>
<path transform="translate(1152,394)" d="m0 0h1v8l-8 3-7 2-3 7 2 1h-5l3-9 5-5 4-5h8z" fill="#54535D"/>
<path transform="translate(1458,127)" d="m0 0 5 5 2 6-4-3-5 1-2 6-2 1-1 4-2 5-2-1 1-9 3-6 4-6h2z" fill="#1D1D24"/>
<path transform="translate(0,99)" d="m0 0 8 1 5 2v5l-2 2-11 1z" fill="#44434C"/>
<path transform="translate(992,240)" d="m0 0 5 2 16 8 18 6 15 3v1h-8l-15-3-20-8-11-7z" fill="#767882"/>
<path transform="translate(1442,198)" d="m0 0h15l9 2-2 2h-34l-2-2z" fill="#1A1A21"/>
<path transform="translate(1830,305)" d="m0 0h31l63 1v1l-79 1v-2h-15z" fill="#4E4F59"/>
<path transform="translate(1725,104)" d="m0 0 9 1 15 6 10 5 4 1 1 5-5-2-12-6-21-8z" fill="#18181F"/>
<path transform="translate(202,251)" d="m0 0 2 1h10l6-1h27l3 2-4 1h-44z" fill="#17171E"/>
<path transform="translate(1020,141)" d="m0 0 9 3 30 8 25 7v1l-9-1-28-7-22-7-5-3z" fill="#777A84"/>
<path transform="translate(311,210)" d="m0 0 1 2-8 12-2 6-9 8-6 4h-4l1-3 9-6 9-10 8-12z" fill="#31323A"/>
<path transform="translate(1120,281)" d="m0 0 2 1-2 4-8 7h-3v2l-10 6-11 4-4-1 22-11 9-7z" fill="#1B1B22"/>
<path transform="translate(1986,201)" d="m0 0 2 1-4 3h-14l-26-1-11-1v-1z" fill="#15151C"/>
<path transform="translate(1675,243)" d="m0 0 15 6 10 3 10 2v1h-10l-15-3-10-5z" fill="#2F2F38"/>
<path transform="translate(317,171)" d="m0 0 1 2h2v19l-3 12-3-1 1-9 1-6z" fill="#17171E"/>
<path transform="translate(1444,156)" d="m0 0h3l-1 6-3 8-2 7-2 5-4 2 1-8 7-19z" fill="#21212A"/>
<path transform="translate(852,422)" d="m0 0 7 1 3 2 4-1v12l-6-2-3-4v-3l-5-2z" fill="#60616A"/>
<path transform="translate(1148,403)" d="m0 0 4 1-2 1-1 5 3 1-17 3 1-5 2-3z" fill="#44434C"/>
<path transform="translate(1487,195)" d="m0 0h1v5l-4 3h-30v-1l10-1 3-2 16-1 3-1z" fill="#21212A"/>
<path transform="translate(1807,261)" d="m0 0 1 4-6 7-13 10-3 3-4 1 4-6 13-11 6-5z" fill="#2D2E35"/>
<path transform="translate(1892,101)" d="m0 0h48v2l-13 1-35-1z" fill="#14141B"/>
<path transform="translate(975,288)" d="m0 0 4 1 15 8 18 6 15 4v1l-9-1-10-2-10-4-8-3-5-2v-2l-5-1-5-3z" fill="#1B1B23"/>
<path transform="translate(1218,229)" d="m0 0 53 1v1l-47 1-4 7-1 6h-1z" fill="#45464F"/>
<path transform="translate(783,307)" d="m0 0h15l32 1v1l-7 1h-37z" fill="#17171E"/>
<path transform="translate(1140,212)" d="m0 0h2l2 7v4h2v6h-2l1 5-3 8h-2z" fill="#16161C"/>
<path transform="translate(696,137)" d="m0 0 1 4-5 11 1 2 1 3-3 6-2 6-5 1 3-10 8-21z" fill="#45464F"/>
<path transform="translate(1770,224)" d="m0 0 3 1 2 5h-5l-2 4-9 7h-3l1-3 5-4 6-9z" fill="#202127"/>
<path transform="translate(1363,146)" d="m0 0 2 2 1 10-1 3h-2l1 4h-2v4h-3v-9l2-5z" fill="#222229"/>
<path transform="translate(1334,307)" d="m0 0h36v2l-6 1h-17l-12-1z" fill="#202029"/>
<path transform="translate(647,261)" d="m0 0 1 3-4 12 2 2-7 14h-2l1-9z" fill="#4E4F58"/>
<path transform="translate(1162,248)" d="m0 0h1l1 55-1-3h-2v-51z" fill="#1D1D25"/>
<path transform="translate(456,204)" d="m0 0h59v1l-24 1h-33l-5 4 1-5z" fill="#1D1D25"/>
<path transform="translate(1637,161)" d="m0 0h1v23l2 1 2 15 1 2h-3v-3h-2l-2-9v-23z" fill="#43444D"/>
<path transform="translate(1222,106)" d="m0 0h52v1l-9 1h-42l-2 3-1 5h-1v-8z" fill="#1D1D25"/>
<path transform="translate(1008,203)" d="m0 0h9l5 1v1h-9l-7 4-2 3-1-1-1 2-3-1-1-5 5-3z" fill="#1D1D25"/>
<path transform="translate(1520,270)" d="m0 0h3l6 17 3 5v4l-3-1-4-8-3-10-2-4z" fill="#1D1D24"/>
<path transform="translate(1345,197)" d="m0 0v3l-5 6-10 8-14 8-5 2-3-1 15-8 12-8z" fill="#1D1D25"/>
<path transform="translate(1283,174)" d="m0 0 2 1v3l-7 2-22-1 1-2 22-2z" fill="#26262E"/>
<path transform="translate(1122,102)" d="m0 0v3l-11 14-4 4 1-6 9-14 2 2z" fill="#282931"/>
<path transform="translate(1618,273)" d="m0 0 5 2 8 6 13 8 4 2v2l-4-1-15-9-7-4-4-3z" fill="#1C1C23"/>
<path transform="translate(1640,154)" d="m0 0 2 3v5l-1 3v3h-2l1 10v6l-3 1v-17l2-11z" fill="#1E1E26"/>
<path transform="translate(1799,97)" d="m0 0h3l-2 4-13 12-4 2 3-7 10-9z" fill="#2A2A32"/>
<path transform="translate(441,305)" d="m0 0h20l22 1-1 2h-42z" fill="#23232B"/>
<path transform="translate(720,156)" d="m0 0 2 3 10 22-1 2-5-5-6-16z" fill="#303138"/>
<path transform="translate(1579,196)" d="m0 0h2l2 9 1 1 1 10v3l-1 4-4-12-2-8z" fill="#15151B"/>
<path transform="translate(924,391)" d="m0 0h13v2h2v2l-11 1-7-1v-3z" fill="#757781"/>
<path transform="translate(1223,232)" d="m0 0h20l7 1 17 1v1h-36v-2h-8z" fill="#1D1D25"/>
<path transform="translate(837,162)" d="m0 0m-3 1 6 1v2h-8l-1 45h-1v-44l1-3z" fill="#5D5F68"/>
<path transform="translate(301,66)" d="m0 0h4v2l6 2 14 8 11 9-2 1-14-10-19-11z" fill="#71737D"/>
<path transform="translate(57,256)" d="m0 0h1l1 23 2-2v19l-3-4-1-11z" fill="#1F1F27"/>
<path transform="translate(92,304)" d="m0 0h15l-2 1-1 2h-34v-1l18-1z" fill="#24252C"/>
<path transform="translate(1600,247)" d="m0 0 5 5 7 10 12 12-1 2-10-9-8-10-5-8z" fill="#737680"/>
<path transform="translate(370,135)" d="m0 0h2l6 20h-3l-2-11h-2l-1 4-2-8 1-4z" fill="#26262E"/>
<path transform="translate(1878,200)" d="m0 0 27 1v1l-23 1-1 5-1 15h-1z" fill="#1D1D25"/>
<path transform="translate(1030,103)" d="m0 0h18v1l-16 2-12 6h-3l4-5z" fill="#1E1E26"/>
<path transform="translate(672,197)" d="m0 0 1 4 31 1v1l-15 1h-20l2-5z" fill="#686973"/>
<path transform="translate(1024,198)" d="m0 0 7 1 10 3 1 2 3 2-6-1-17-4-2-2z" fill="#1C1C23"/>
<path transform="translate(711,136)" d="m0 0 3 4 6 14-1 2-5-5-5-11v-2h2z" fill="#33343B"/>
<path transform="translate(1771,63)" d="m0 0h4l3 5 7 6-3 1-7-4-5-4-1-3z" fill="#414249"/>
<path transform="translate(944,396)" d="m0 0 3 2 3 17-1 8h-1l-2-11z" fill="#44434C"/>
<path transform="translate(1623,78)" d="m0 0h2v3l-8 7-5 6h-4l2-4 8-8z" fill="#31323A"/>
<path transform="translate(303,65)" d="m0 0 8 1 2 1v2h4l8 8h-3l-17-9v-2z" fill="#1B1B23"/>
<path transform="translate(145,226)" d="m0 0h1l2 28v15h-1l-2-12z" fill="#1D1D25"/>
<path transform="translate(1426,199)" d="m0 0 1 2 27 1-2 2h-27l-1-2z" fill="#72757F"/>
<path transform="translate(1e3 189)" d="m0 0 5 1 16 6 4 2-5 1-12-4-8-4z" fill="#16161C"/>
<path transform="translate(725,179)" d="m0 0 3 4 2 7v5l-2 3-9 1v-2l5-2 2-5v-6z" fill="#33343E"/>
<path transform="translate(1307,141)" d="m0 0h1v12l-4 9h-3l-2 1 2-5 4-9z" fill="#24242B"/>
<path transform="translate(253,104)" d="m0 0 10 1 13 4 2 3-7-1-17-5z" fill="#191A20"/>
<path transform="translate(1670,113)" d="m0 0h6v2h-3v2l-9 6-6 5-2-1 13-13z" fill="#212129"/>
<path transform="translate(1291,109)" d="m0 0 6 1 7 8v4l-4-2-5-6-6-3z" fill="#2A2B32"/>
<path transform="translate(1307,59)" d="m0 0 9 3 9 6 2 4-5-2-15-8z" fill="#3D3E47"/>
<path transform="translate(932,414)" d="m0 0h8l4 2-3 4-9-1-1-4z" fill="#54535D"/>
<path transform="translate(1571,253)" d="m0 0 3 1 11 26h-3l-11-25z" fill="#767983"/>
<path transform="translate(945,259)" d="m0 0 9 9 9 8 8 6-1 2-14-11-10-9z" fill="#767882"/>
<path transform="translate(651,258)" d="m0 0 1 4-4 11-1 3-4 1 3-10 3-7z" fill="#1F1F27"/>
<path transform="translate(1341,199)" d="m0 0v3l-7 7-13 8h-2l1-3 11-7z" fill="#121218"/>
<path transform="translate(398,56)" d="m0 0h1v22l-2 6h-1v-14l1-11z" fill="#16161C"/>
<path transform="translate(1364,416)" d="m0 0h4l2 6 9 2-2 4-1-2-9-1-3-2-1-6z" fill="#34353F"/>
<path transform="translate(202,102)" d="m0 0h43v1h-38l-2 4-2 1z" fill="#0E0E13"/>
<path transform="translate(1078,215)" d="m0 0 4 2 5 10v13l-2 3-1-20h-3l-1-5z" fill="#50515B"/>
<path transform="translate(704,116)" d="m0 0 3 3 4 14-1 3-4-10-2-2-3 2 1-6z" fill="#62636D"/>
<path transform="translate(582,289)" d="m0 0 1 4-1 4h-2v6l-3-1-2-5 4-7 2 1z" fill="#2D2D36"/>
<path transform="translate(1574,255)" d="m0 0 3 1 4 8 5 14v2h-2l-10-23z" fill="#25252E"/>
<path transform="translate(1880,129)" d="m0 0h3v7 3h-2l-2 13h-1v-15l1-7z" fill="#363740"/>
<path transform="translate(1103,295)" d="m0 0h2v2l-6 4-11 4-4-1 8-4z" fill="#1A1A21"/>
<path transform="translate(304,288)" d="m0 0m-2 1h2v2l-16 6-7 2h-5l4-2z" fill="#747780"/>
<path transform="translate(1072,254)" d="m0 0m-2 1h2v3l-6 2-7 1h-9l-4-2 16-1v-1z" fill="#3E3F48"/>
<path transform="translate(1432,189)" d="m0 0h3l-1 9-1 2-3 2-4-1z" fill="#272831"/>
<path transform="translate(926,216)" d="m0 0h8l7 1-1 2h-13l-14-1v-1z" fill="#17171E"/>
<path transform="translate(1040,203)" d="m0 0 9 1 10 3-1 3-13-3v-2l-5-1z" fill="#18181F"/>
<path transform="translate(1578,162)" d="m0 0h2v21h-2l-1-7v-8l1-2z" fill="#1F1F27"/>
<path transform="translate(1522,132)" d="m0 0 2 1 4 11v3h-3l-4-10z" fill="#2D2E36"/>
<path transform="translate(259,302)" d="m0 0h10v2l-12 2h-9l1-2z" fill="#16161D"/>
<path transform="translate(58,130)" d="m0 0h1l1 14v12h-2l-1-5z" fill="#23232B"/>
<path transform="translate(1695,102)" d="m0 0h11v2l-11 3h-6l1-2h2v-2z" fill="#1D1E24"/>
<path transform="translate(113,102)" d="m0 0h1v28h-2l-1-10v-11h1z" fill="#22222B"/>
<path transform="translate(944,416)" d="m0 0 2 1 1 10h-3v-4l-7-1-1-2 6-2z" fill="#60616A"/>
<path transform="translate(1798,272)" d="m0 0 2 1-9 8-5 4-4 1 4-6 4-3 5-2z" fill="#222229"/>
<path transform="translate(283,59)" d="m0 0 11 1 10 4-1 2-7-1-13-5z" fill="#474851"/>
<path transform="translate(1522,267)" d="m0 0 2 2 10 25-1 3-5-10-6-17z" fill="#757882"/>
<path transform="translate(1082,223)" d="m0 0h2l1 3v19h-3z" fill="#191920"/>
<path transform="translate(1458,113)" d="m0 0 3 3 2 5-1 4-3-7-5 12-1-3 4-13z" fill="#676A73"/>
<path transform="translate(959,108)" d="m0 0h1v13l-1 11h-1l-2-21h2z" fill="#383841"/>
<path transform="translate(1335,274)" d="m0 0h3 1l-1 7-2 5-3 1v-8z" fill="#2F2F38"/>
<path transform="translate(850,216)" d="m0 0h16l-1 3h-14z" fill="#1E1F27"/>
<path transform="translate(683,419)" d="m0 0 2 1 1 7-6 4-3-1 4-5z" fill="#202028"/>
<path transform="translate(1986,156)" d="m0 0 1 3h2v13l1 5-2 2-2-11z" fill="#1D1D25"/>
<path transform="translate(1585,131)" d="m0 0h3l-1 9-2 5-3-1 2-9h2z" fill="#2C2C35"/>
<path transform="translate(455,117)" d="m0 0h1v33l4 2-5 1z" fill="#0F0F14"/>
<path transform="translate(1825,53)" d="m0 0h1v22l-3 3v-9z" fill="#18181F"/>
<path transform="translate(1584,210)" d="m0 0 2 4 5 14-1 2-1-3h-2l-4-11 1-1z" fill="#43444C"/>
<path transform="translate(1036,407)" d="m0 0 2 4 3 4-1 2-4-4-10-1 4-3z" fill="#44434C"/>
<path transform="translate(1029,394)" d="m0 0 4 1v7h-6v-6h2z" fill="#44434C"/>
<path transform="translate(1445,47)" d="m0 0 27 1v1l-31 1 4-1z" fill="#1D1D25"/>
<path transform="translate(1e3 300)" d="m0 0 24 6 2 2-9-1-10-2-7-3z" fill="#24242C"/>
<path transform="translate(944,258)" d="m0 0 2 4 7 8 5 5-4-2-5-3-5-6-1-5z" fill="#18191F"/>
<path transform="translate(1986,168)" d="m0 0h1l2 13-1 20-2-1z" fill="#5C5D67"/>
<path transform="translate(1398,132)" d="m0 0 2 1-3 9-2 3-2-8 1-3z" fill="#2A2B32"/>
<path transform="translate(1787,79)" d="m0 0 5 1 4 3v2h2l3 4-1 3-9-9z" fill="#292930"/>
<path transform="translate(982,67)" d="m0 0h2l-2 4-7 7-3-2 6-6h2v-2z" fill="#282931"/>
<path transform="translate(726,51)" d="m0 0 4 2 4 5v3h-2l-1 2-5-9z" fill="#33333C"/>
<path transform="translate(1585,223)" d="m0 0 2 4h2l4 5v6l-3-1-5-11z" fill="#22222A"/>
<path transform="translate(1361,226)" d="m0 0 1 3-9 19-1-3 2-4 1-7 4-4z" fill="#5F616A"/>
<path transform="translate(1358,219)" d="m0 0h2l1 9-3 5-1-3-1-9z" fill="#1B1B22"/>
<path transform="translate(292,295)" d="m0 0 2 1-4 2-12 4-4-1 2-2z" fill="#202028"/>
<path transform="translate(1138,208)" d="m0 0 2 3 1 3v22h-1l-2-21z" fill="#393A42"/>
<path transform="translate(695,142)" d="m0 0 4 1-3 7-2 4-3 1 1-5z" fill="#23232C"/>
<path transform="translate(306,137)" d="m0 0 4 1 2 6h2v6l-2-1v-2h-2l-4-8z" fill="#1B1B22"/>
<path transform="translate(1094,115)" d="m0 0 11 6-1 3-10-5z" fill="#24242D"/>
<path transform="translate(1368,416)" d="m0 0 1 4 10 2 2 1-2 5h-3l2-3-9-3-1-1z" fill="#5B5B64"/>
<path transform="translate(944,400)" d="m0 0h1l2 12 1 4v9l-2-4-2-12z" fill="#54535D"/>
<path transform="translate(580,409)" d="m0 0h1l2 14-1 1-1 12h-1z" fill="#44434C"/>
<path transform="translate(1334,286)" d="m0 0 1 2-4 16h-1l-1-8h2l-1-2v-7z" fill="#3F4049"/>
<path transform="translate(1162,280)" d="m0 0h1l1 23-1-3h-2v-13z" fill="#131319"/>
<path transform="translate(337,269)" d="m0 0h2l-2 4-8 7h-3l2-4z" fill="#1A1A21"/>
<path transform="translate(599,238)" d="m0 0 1 3-1 6-2 2-1 4h-2l-1-3 2-5 3-6z" fill="#18181F"/>
<path transform="translate(1392,139)" d="m0 0h2l1 2-1 9-2-3-1 2h-2l1-6z" fill="#24242C"/>
<path transform="translate(703,131)" d="m0 0 3 1 3 5-1 3-4-3-4 1 1-5z" fill="#1D1D25"/>
<path transform="translate(254,302)" d="m0 0h5l-4 2-6 1 3 2h-12v-3z" fill="#3A3B44"/>
<path transform="translate(1583,206)" d="m0 0h1l1 10v3l-1 4-4-12 1-3h2z" fill="#212129"/>
<path transform="translate(311,210)" d="m0 0 1 2-6 9-3 7h-2l-1-3 8-11z" fill="#1C1C24"/>
<path transform="translate(1080,304)" d="m0 0 3 1-1 2-11 2h-8l3-2 11-2z" fill="#22222A"/>
<path transform="translate(318,188)" d="m0 0h2l-1 8-2 8-2-3 2-12z" fill="#2E2F36"/>
<path transform="translate(454,242)" d="m0 0h1l1 10 2 1 13 1v1h-17z" fill="#1C1C24"/>
<path transform="translate(1594,241)" d="m0 0 3 1 3 3 1 5-3 1v-2h-2l-2-5z" fill="#1D1D24"/>
<path transform="translate(1754,240)" d="m0 0 4 2-12 7-2-1 3-3z" fill="#393A43"/>
<path transform="translate(813,235)" d="m0 0 2 4-1 7-3-4-1-5z" fill="#2E2E36"/>
<path transform="translate(1444,156)" d="m0 0h3l-1 6-5 5 1-7z" fill="#1A1A20"/>
<path transform="translate(320,76)" d="m0 0 5 2 11 9-2 1-14-10z" fill="#757781"/>
<path transform="translate(292,235)" d="m0 0 1 3-6 4h-4l1-3z" fill="#282930"/>
<path transform="translate(1464,138)" d="m0 0 6 2-1 6-7-4z" fill="#212129"/>
<path transform="translate(1633,283)" d="m0 0 11 6 4 2v2l-4-1-10-6z" fill="#25252D"/>
<path transform="translate(601,237)" d="m0 0h1v6l-4 10-2-4 1-2h2l-1-4z" fill="#35363D"/>
<path transform="translate(807,229)" d="m0 0h3v2l3 1-2 5h-2l-2-4z" fill="#25252D"/>
<path transform="translate(303,65)" d="m0 0 8 1 3 3-1 3-8-4v-2z" fill="#1D1D25"/>
<path transform="translate(1485,55)" d="m0 0 1 2 3 1 2 4-1 5-3-4-2-4z" fill="#373740"/>
<path transform="translate(1122,438)" d="m0 0 7 1 3 2 4-1v3l-9-1-5-3z" fill="#54535D"/>
<path transform="translate(1346,190)" d="m0 0 1 2-2 5-7 6-2-1 8-9z" fill="#44454D"/>
<path transform="translate(1358,164)" d="m0 0h1l1 6-3 4-3 7h-2l2-6z" fill="#52545D"/>
<path transform="translate(956,119)" d="m0 0h2v15l-2-3-1-9z" fill="#15151C"/>
<path transform="translate(1782,67)" d="m0 0 10 4 3 3-2 1-11-5z" fill="#1D1D25"/>
<path transform="translate(1520,270)" d="m0 0h3l2 5v5l-3-1z" fill="#1B1B21"/>
<path transform="translate(593,252)" d="m0 0 4 1-1 5-5 1-1-2z" fill="#23232A"/>
<path transform="translate(1292,225)" d="m0 0h6l1 4-5 1-3 1-1-2h3v-2l-4-1z" fill="#2E2E36"/>
<path transform="translate(1879,140)" d="m0 0h1l1 9 4 2-3 2h-3z" fill="#19191F"/>
<path transform="translate(1683,106)" d="m0 0 4 1-1 3-7 2v-4z" fill="#222229"/>
<path transform="translate(272,299)" d="m0 0 4 1-4 3-11-1v-1z" fill="#4A4B54"/>
<path transform="translate(1593,234)" d="m0 0 4 5 2 6-3-3h-3l-2-5z" fill="#4B4D56"/>
<path transform="translate(1304,222)" d="m0 0 4 2-3 2-8 1 1-3z" fill="#18181F"/>
<path transform="translate(972,168)" d="m0 0 7 6 5 4v2l-4-2-3-2v-2h-2l-3-4z" fill="#111116"/>
<path transform="translate(1127,95)" d="m0 0v3l-5 5-4 3v-4z" fill="#19191F"/>
<path transform="translate(1618,82)" d="m0 0m-1 1m-1 1m-1 1m-1 1m-1 1m-1 1 2 1-1 4-5 1 2-4z" fill="#272830"/>
<path transform="translate(1074,214)" d="m0 0 5 2 3 4-2 2-7-6z" fill="#1A1A21"/>
<path transform="translate(1446,147)" d="m0 0 2 4v5l-5 1 1-5z" fill="#3F4048"/>
<path transform="translate(1022,103)" d="m0 0 2 1-5 6-6 4 2-4 5-5z" fill="#42434B"/>
<path transform="translate(253,104)" d="m0 0 10 1 3 3-8-1-5-2z" fill="#17171E"/>
<path transform="translate(1132,81)" d="m0 0 3 1-1 6-4 6-1-2 2-3z" fill="#1A1A22"/>
<path transform="translate(952,272)" d="m0 0 4 2 5 2 2 5-4-2-7-6z" fill="#1D1D24"/>
<path transform="translate(354,247)" d="m0 0 1 2h2l-2 4-6 3 2-5z" fill="#393A42"/>
<path transform="translate(1880,240)" d="m0 0h1l1 8 4 5h-6z" fill="#1B1B23"/>
<path transform="translate(360,241)" d="m0 0 1 3-3 5h-3l1-5z" fill="#1D1E24"/>
<path transform="translate(276,243)" d="m0 0h2l-1 4-7 1 1-3z" fill="#22222A"/>
<path transform="translate(723,173)" d="m0 0h2l4 8 3 2-1 3-5-5z" fill="#181820"/>
<path transform="translate(1633,71)" d="m0 0h2l-1 3-9 6 1-4z" fill="#3C3D46"/>
<path transform="translate(1098,58)" d="m0 0 8 4 1 3-6-2-4-4z" fill="#2D2E36"/>
</svg>
